<svg width="72" height="72" viewBox="0 0 72 72" fill="none" xmlns="http://www.w3.org/2000/svg">
<path d="M0 10C0 4.47715 4.47715 0 10 0H62C67.5229 0 72 4.47715 72 10V62C72 67.5229 67.5229 72 62 72H10C4.47715 72 0 67.5229 0 62V10Z" fill="white"/>
<path d="M31.6992 15.79C36.5016 15.8829 41.0761 17.8495 44.4395 21.2676C47.8028 24.6856 49.6872 29.2826 49.6875 34.0703C49.6866 37.2794 48.8384 40.4319 47.2285 43.2109C45.6184 45.99 43.3028 48.2985 40.5147 49.9033C37.7265 51.5082 34.5634 52.3537 31.3438 52.3545C28.1242 52.3553 24.9608 51.5116 22.1719 49.9082V56.2002C22.1731 57.4008 21.9364 58.5899 21.4756 59.6992C21.0147 60.8085 20.3389 61.8168 19.4863 62.665C18.3874 63.7624 17.0255 64.5619 15.5303 64.9892C15.2342 65.0702 14.9235 65.0824 14.6221 65.0244C14.3207 64.9664 14.0366 64.8401 13.792 64.6553C13.5474 64.4704 13.3483 64.2317 13.2109 63.958C13.0738 63.6845 13.0017 63.3829 13 63.0771V34.0723C12.998 29.2833 14.8818 24.6845 18.2461 21.2656C21.6104 17.8468 26.1866 15.8806 30.9902 15.79H31.6992ZM31.3438 24.9297C28.9343 24.9297 26.6213 25.8747 24.9053 27.5605C23.1895 29.2463 22.208 31.5373 22.1729 33.9385C22.1378 36.3397 23.0518 38.6587 24.7178 40.3935C26.3839 42.1284 28.6688 43.1401 31.0772 43.2099H31.6104C34.0187 43.1401 36.3026 42.1283 37.9688 40.3935C39.6348 38.6587 40.5497 36.3398 40.5147 33.9385C40.4795 31.5372 39.4972 29.2463 37.7813 27.5605C36.0652 25.8748 33.753 24.9297 31.3438 24.9297ZM52.4307 28.5596C54.1227 26.818 56.6441 26.5237 58.0625 27.8955C59.4806 29.2674 59.263 31.7825 57.5713 33.5244C55.8792 35.2664 53.3571 35.5613 51.9385 34.1894C50.5201 32.8175 50.7387 30.3015 52.4307 28.5596ZM49.3379 15.2051C51.0299 13.4631 53.5512 13.1692 54.9697 14.541C56.3883 15.9129 56.1684 18.4323 54.4785 20.1699C52.7865 21.9052 50.2652 22.2068 48.8467 20.835C47.4281 19.4631 47.6458 16.9471 49.3379 15.2051ZM23.6172 8.79394C24.6178 6.58695 26.8874 5.45457 28.6904 6.25878C30.4937 7.0633 31.141 9.51033 30.1582 11.7178C29.1754 13.9251 26.8963 15.0601 25.0908 14.2578C23.2876 13.4466 22.6166 11.0014 23.6172 8.79394ZM37.7783 8.27538C39.0768 6.23866 41.4823 5.43344 43.1543 6.48827C44.8263 7.54323 45.1305 10.0549 43.832 12.1006C42.5335 14.146 40.128 14.9482 38.4561 13.8955C36.784 12.8405 36.4799 10.3121 37.7783 8.27538Z" fill="#81D8D0"/>
</svg>
