<svg version="1.2" xmlns="http://www.w3.org/2000/svg" viewBox="0 0 1540 1499" width="1540" height="1499">
	<title>Schneider_Electric_2007-svg</title>
	<defs>
		<clipPath clipPathUnits="userSpaceOnUse" id="cp1">
			<path d="m-2412.04-1401.54h9828.61v2900.04h-9828.61z"/>
		</clipPath>
	</defs>
	<style>
		.s0 { fill: #009e4d } 
	</style>
	<g id="g11">
		<g id="g2510">
			<g id="g97">
				<g id="Clip-Path: g99" clip-path="url(#cp1)">
					<g id="g99">
						<path id="path107" fill-rule="evenodd" class="s0" d="m1483.8 733.6c-15.4 41.1-35.2 81.6-56.7 122.6h-292.8l-38.2 129h250.5c-46.7 66-98.5 130.2-161.1 189.8-357.9 342.4-837.1 422.1-1064 195.3-116.8-116.9-146.4-301-100-498.4h271.5l44.2-129.2h-276.3c16-41 36.9-81.4 59.2-122.2h232.9l45.4-129.2h-195c43-58.8 90.2-116.3 146.2-169.4 358.1-342.5 838.7-420.5 1068.5-190.9 113.5 113.5 145 286.7 105 473.7h-323.9l-35.5 128.9zm-199.4-242.8l40.8-188.4h-318.9c-223.8 0-371.6 154.5-396.1 294.3l-83 348.2c-0.9 9.3-7.2 18.4-12.2 24.2-13.3 14.9-29.3 22.4-49.7 22.4h-200l-54 204.8h311.3c223.9 0 395.7-139.6 420.4-279.3l105.1-398.6c1.2-7.4 2.5-11.2 5.9-14.8 8.4-9.4 17.1-12.8 37.8-12.8z"/>
					</g>
				</g>
			</g>
		</g>
	</g>
</svg>